<?xml version="1.0" encoding="UTF-8" standalone="no"?>
<!-- Created with Inkscape (http://www.inkscape.org/) -->

<svg
   version="1.1"
   id="svg2"
   width="244"
   height="180"
   viewBox="0 0 244 180"
   sodipodi:docname="Logo Club.eps"
   xmlns:inkscape="http://www.inkscape.org/namespaces/inkscape"
   xmlns:sodipodi="http://sodipodi.sourceforge.net/DTD/sodipodi-0.dtd"
   xmlns="http://www.w3.org/2000/svg"
   xmlns:svg="http://www.w3.org/2000/svg">
  <defs
     id="defs6" />
  <sodipodi:namedview
     id="namedview4"
     pagecolor="#ffffff"
     bordercolor="#000000"
     borderopacity="0.25"
     inkscape:showpageshadow="2"
     inkscape:pageopacity="0.0"
     inkscape:pagecheckerboard="0"
     inkscape:deskcolor="#d1d1d1" />
  <g
     id="g8"
     inkscape:groupmode="layer"
     inkscape:label="ink_ext_XXXXXX"
     transform="matrix(1.3333333,0,0,-1.3333333,0,180)">
    <g
       id="g10"
       transform="scale(0.1)">
      <path
         d="m 875.293,499.766 61.266,-47.735 h 75.191 l 61.27,47.735 h -21.33 -0.41 l -44.44,-34.633 h -14.82 l 19.53,34.633 h -44.706 l -7.645,-34.633 h -17.726 l -44.446,34.633 z m 0,129.242 v -18.442 h 197.727 v 18.442 z m 0,-33.399 v -16.992 h 197.727 v 16.992 z m 0,-31.949 v -16.992 h 197.727 v 16.992 z m 0,-31.949 v -16.992 h 197.727 v 16.992 z M 845.266,647.762 H 1103.04 V 486.219 l -80.58,-62.778 h -96.62 l -80.574,62.778 v 161.543"
         style="fill:#918f8f;fill-opacity:1;fill-rule:evenodd;stroke:none"
         id="path12" />
      <path
         d="m 402.816,1174.84 c 19.571,0 38.411,-3.13 56.047,-8.91 22.575,5.93 46.262,9.11 70.7,9.11 9.187,0 18.265,-0.46 27.226,-1.33 17.856,15.51 41.176,24.9 66.688,24.9 49.812,0 91.257,-35.79 100.043,-83.06 23.371,-3.58 44.125,-15.11 59.414,-31.74 -8.914,-9.13 -17.192,-18.87 -24.75,-29.18 30.656,-44.6 48.617,-98.614 48.617,-156.833 0,-23.367 -2.91,-46.059 -8.352,-67.738 3.934,-14.778 6.024,-30.301 6.024,-46.313 0,-99.308 -80.504,-179.812 -179.809,-179.812 -27.434,0 -53.43,6.16 -76.691,17.148 -23.246,-31.094 -60.352,-51.219 -102.153,-51.219 -65.789,0 -119.933,49.836 -126.746,113.817 -66.726,4.078 -119.578,59.468 -119.578,127.222 0,39.235 17.738,74.325 45.621,97.711 -14.09,25.645 -22.113,55.094 -22.113,86.422 0,99.305 80.504,179.805 179.812,179.805 z m 126.747,-24.99 c 70.843,0 134.855,-29.24 180.64,-76.3 l -94.082,-94.085 c -21.699,22.995 -52.449,37.345 -86.558,37.345 -65.731,0 -119.012,-53.279 -119.012,-119.009 0,-65.727 53.281,-119.016 119.012,-119.016 34.109,0 64.859,14.356 86.558,37.352 l 94.082,-94.09 C 664.418,674.992 600.406,645.75 529.563,645.75 c -139.208,0 -252.051,112.848 -252.051,252.047 0,139.203 112.843,252.053 252.051,252.053 z m 0,16.44 c 148.281,0 268.492,-120.2 268.492,-268.493 0,-148.281 -120.211,-268.492 -268.492,-268.492 -148.29,0 -268.493,120.211 -268.493,268.492 0,148.293 120.203,268.493 268.493,268.493 z M 232.598,683.594 c 45.992,0 83.277,-37.285 83.277,-83.278 0,-46 -37.285,-83.281 -83.277,-83.281 -46,0 -83.282,37.281 -83.282,83.281 0,45.993 37.282,83.278 83.282,83.278 z M 74.1328,580.59 c 35.7812,0 64.7892,-29.004 64.7892,-64.789 0,-35.789 -29.008,-64.797 -64.7892,-64.797 -35.789,0 -64.79296,29.008 -64.79296,64.797 0,35.785 29.00396,64.789 64.79296,64.789"
         style="fill:#4a79c6;fill-opacity:1;fill-rule:evenodd;stroke:none"
         id="path14" />
      <path
         d="m 976.664,1165.39 c 86.496,0 163.536,-40.55 213.126,-103.68 -32.07,-46.6 -50.86,-103.062 -50.86,-163.913 0,-18.063 1.67,-35.731 4.83,-52.879 L 1002.3,1142.2 c -19.195,0 -38.386,0 -57.581,0 L 818.367,876.668 c 0.508,7.023 0.762,14.074 0.762,21.129 0,55.668 -15.813,109.683 -45.824,156.363 5.765,7.34 11.925,14.36 18.445,21.03 4.586,4.69 4.699,12.13 0.262,16.96 l -0.262,0.28 c 48.406,45.26 113.418,72.96 184.914,72.96 z m -11.57,179.22 h 23.136 v -138.84 h -23.136 z m -282.809,-109.43 -17.113,-15.57 34.242,-37.62 c 5.969,-5.32 11.387,-11.26 16.141,-17.74 l 42.562,-46.77 0.723,-0.35 16.894,15.37 z m 142.758,83.27 -21.574,-8.34 50.097,-129.49 21.579,8.35 z m 445.997,-83.27 17.12,-15.57 -93.45,-102.68 -17.12,15.57 z m -142.76,83.27 21.58,-8.34 -50.09,-129.49 -21.59,8.35 z m -274.796,-643.591 14.871,31.254 h 210.305 l 14.88,-31.254 z M 1024.05,820.871 973.508,927.09 922.969,820.871 Z"
         style="fill:#fad306;fill-opacity:1;fill-rule:evenodd;stroke:none"
         id="path16" />
      <path
         d="m 1428.5,1175.04 c 153.11,0 277.24,-124.13 277.24,-277.243 0,-131.277 -91.26,-241.242 -213.79,-269.934 l 106.57,-64.89 -201.89,-49.082 66.24,108.789 c -11.26,-1.391 -22.73,-2.121 -34.37,-2.121 -153.12,0 -277.24,124.129 -277.24,277.238 0,153.113 124.12,277.243 277.24,277.243 z m 0,-25.19 c 70.85,0 134.85,-29.24 180.64,-76.3 l -94.08,-94.085 c -21.7,22.985 -52.45,37.345 -86.56,37.345 -65.73,0 -119.01,-53.283 -119.01,-119.009 0,-65.727 53.28,-119.012 119.01,-119.012 34.11,0 64.86,14.356 86.56,37.344 l 94.08,-94.086 c -45.79,-47.055 -109.79,-76.297 -180.64,-76.297 -139.2,0 -252.05,112.848 -252.05,252.047 0,139.203 112.85,252.053 252.05,252.053"
         style="fill:#ab1c21;fill-opacity:1;fill-rule:evenodd;stroke:none"
         id="path18" />
      <path
         d="m 1494.59,537.707 c 8.47,-61.703 21.42,-105.66 99.8,-101.156 40.68,2.336 73.95,-2.567 97.77,-13.332 17.13,-7.742 29.59,-18.567 36.68,-31.981 6.32,-11.941 8.28,-25.675 5.44,-40.867 h -17.02 c 2.98,12.652 1.79,23.793 -3.14,33.117 -5.32,10.047 -15.1,18.356 -28.8,24.547 -21.46,9.699 -52.07,14.086 -90.02,11.91 -85.95,-4.765 -108.4,42.543 -117.12,113.77 l 16.41,3.992"
         style="fill:#231f20;fill-opacity:1;fill-rule:evenodd;stroke:none"
         id="path20" />
      <path
         d="m 89.1797,230.5 23.1293,-7.102 c -3.547,-13.027 -9.469,-22.691 -17.7309,-29.023 -8.2617,-6.305 -18.7226,-9.477 -31.4179,-9.477 -15.7227,0 -28.6368,5.375 -38.7735,16.11 -10.1015,10.742 -15.17186,25.418 -15.17186,44.058 0,19.688 5.09376,35 15.25786,45.903 10.1601,10.906 23.5429,16.359 40.1171,16.359 14.4844,0 26.2461,-4.297 35.2735,-12.859 5.3947,-5.067 9.4177,-12.336 12.1167,-21.836 l -23.6245,-5.617 c -1.4063,6.113 -4.3203,10.957 -8.7578,14.511 -4.461,3.551 -9.8555,5.313 -16.1914,5.313 -8.7813,0 -15.918,-3.137 -21.3633,-9.442 -5.4805,-6.281 -8.2071,-16.468 -8.2071,-30.566 0,-14.93 2.6954,-25.582 8.0664,-31.914 5.3985,-6.363 12.3907,-9.527 21.0118,-9.527 6.3593,0 11.8398,2.007 16.4101,6.054 4.5703,4.051 7.8711,10.383 9.8555,19.055 z m 44.3083,-43.617 v 117.305 h 23.957 v -97.309 h 59.313 V 186.883 Z M 233.75,305.18 h 23.949 v -64.106 c 0,-10.187 0.309,-16.765 0.883,-19.769 1.02,-4.848 3.418,-8.758 7.219,-11.676 3.824,-2.945 9.027,-4.406 15.64,-4.406 6.692,0 11.754,1.375 15.172,4.16 3.414,2.781 5.45,6.168 6.141,10.215 0.687,4.047 1.047,10.738 1.047,20.097 v 65.485 h 23.953 v -62.203 c 0,-14.207 -0.629,-24.262 -1.926,-30.125 -1.293,-5.868 -3.66,-10.825 -7.133,-14.872 -3.441,-4.046 -8.07,-7.242 -13.851,-9.64 -5.809,-2.391 -13.352,-3.602 -22.688,-3.602 -11.261,0 -19.797,1.293 -25.613,3.91 -5.805,2.614 -10.406,6 -13.793,10.188 -3.387,4.187 -5.586,8.539 -6.664,13.137 -1.566,6.773 -2.336,16.797 -2.336,30.035 z m 119.313,0 h 47.308 c 9.391,0 16.356,-0.387 20.953,-1.157 4.629,-0.796 8.731,-2.421 12.367,-4.871 3.633,-2.48 6.661,-5.757 9.086,-9.859 2.422,-4.102 3.633,-8.73 3.633,-13.824 0,-5.508 -1.488,-10.602 -4.461,-15.199 -2.972,-4.629 -7.023,-8.071 -12.113,-10.383 7.184,-2.121 12.691,-5.699 16.574,-10.766 3.856,-5.066 5.785,-11.019 5.785,-17.871 0,-5.398 -1.242,-10.629 -3.75,-15.723 -2.504,-5.097 -5.918,-9.172 -10.269,-12.226 -4.324,-3.028 -9.664,-4.899 -16.028,-5.621 -3.96,-0.41 -13.574,-0.688 -28.8,-0.797 h -40.285 z m 23.953,-19.66 v -27.262 h 15.644 c 9.278,0 15.063,0.137 17.32,0.41 4.079,0.469 7.297,1.879 9.637,4.215 2.34,2.344 3.496,5.398 3.496,9.195 0,3.664 -1.015,6.613 -3.027,8.899 -2.012,2.281 -5.012,3.66 -8.977,4.128 -2.371,0.278 -9.171,0.415 -20.375,0.415 z m 0,-46.922 v -31.719 h 22.14 c 8.594,0 14.074,0.246 16.387,0.711 3.551,0.664 6.441,2.23 8.672,4.734 2.234,2.539 3.359,5.867 3.359,10.082 0,3.578 -0.851,6.578 -2.586,9.059 -1.711,2.476 -4.215,4.293 -7.465,5.426 -3.246,1.129 -10.324,1.707 -21.203,1.707 z m 141.261,66.582 h 43.563 c 9.832,0 17.32,-0.742 22.473,-2.258 6.91,-2.039 12.855,-5.672 17.789,-10.902 4.953,-5.207 8.699,-11.594 11.289,-19.165 2.558,-7.546 3.855,-16.882 3.855,-27.953 0,-9.75 -1.211,-18.117 -3.637,-25.168 -2.945,-8.621 -7.16,-15.586 -12.636,-20.898 -4.133,-4.047 -9.723,-7.188 -16.746,-9.445 -5.258,-1.68 -12.278,-2.508 -21.09,-2.508 h -44.86 z m 23.957,-19.989 v -78.312 h 17.762 c 6.637,0 11.426,0.383 14.375,1.125 3.883,0.965 7.074,2.617 9.609,4.93 2.559,2.312 4.629,6.113 6.223,11.398 1.625,5.289 2.422,12.531 2.422,21.672 0,9.141 -0.797,16.137 -2.422,21.039 -1.594,4.902 -3.851,8.699 -6.746,11.457 -2.894,2.723 -6.551,4.598 -11.016,5.559 -3.304,0.742 -9.832,1.132 -19.519,1.132 z m 95.36,-98.308 V 305.18 h 87.566 v -19.989 h -63.609 v -26.269 h 59.148 V 238.93 h -59.148 v -32.051 h 65.922 v -19.996 z m 256.527,0 H 868.32 l -10.215,26.93 H 810.66 l -9.832,-26.93 h -25.332 l 45.93,118.297 h 25.304 z m -43.785,46.922 -16.438,43.781 -15.968,-43.781 z m 57.195,-46.922 v 117.305 h 23.961 v -97.309 h 59.313 v -19.996 z m 155.279,43.453 v 19.992 h 51.38 v -47.199 c -4.98,-4.871 -12.23,-9.141 -21.73,-12.856 -9.47,-3.691 -19.08,-5.535 -28.82,-5.535 -12.37,0 -23.14,2.586 -32.33,7.793 -9.17,5.203 -16.08,12.664 -20.71,22.332 -4.63,9.664 -6.94,20.211 -6.94,31.582 0,12.336 2.59,23.297 7.74,32.907 5.17,9.582 12.72,16.964 22.66,22.082 7.6,3.937 17.02,5.894 28.31,5.894 14.68,0 26.16,-3.086 34.42,-9.25 8.23,-6.199 13.55,-14.703 15.91,-25.609 l -23.79,-4.465 c -1.65,5.812 -4.79,10.41 -9.39,13.797 -4.57,3.359 -10.3,5.039 -17.18,5.039 -10.41,0 -18.7,-3.305 -24.84,-9.942 -6.14,-6.636 -9.22,-16.464 -9.22,-29.488 0,-14.074 3.11,-24.621 9.33,-31.637 6.25,-7.027 14.41,-10.55 24.51,-10.55 4.98,0 9.99,0.992 15.01,2.945 5.04,1.957 9.33,4.352 12.94,7.16 v 15.008 z m 68.54,14.98 c 0,12.059 1.81,22.196 5.42,30.399 2.67,6.035 6.36,11.461 11.02,16.246 4.65,4.793 9.75,8.348 15.28,10.684 7.38,3.113 15.89,4.683 25.52,4.683 17.46,0 31.4,-5.426 41.89,-16.246 10.46,-10.852 15.69,-25.914 15.69,-45.219 0,-19.133 -5.2,-34.113 -15.58,-44.906 -10.39,-10.824 -24.29,-16.219 -41.66,-16.219 -17.6,0 -31.62,5.367 -42,16.133 -10.38,10.738 -15.58,25.555 -15.58,44.445 z m 24.61,0.801 c 0,-13.41 3.11,-23.574 9.31,-30.512 6.19,-6.91 14.07,-10.382 23.6,-10.382 9.56,0 17.38,3.441 23.52,10.297 6.11,6.886 9.16,17.187 9.16,30.925 0,13.575 -2.97,23.711 -8.94,30.371 -5.95,6.692 -13.86,10.024 -23.74,10.024 -9.86,0 -17.82,-3.387 -23.85,-10.133 -6.03,-6.773 -9.06,-16.965 -9.06,-30.59 z m 108.85,-59.234 V 305.18 h 50.32 c 12.63,0 21.83,-1.071 27.56,-3.196 5.75,-2.121 10.33,-5.89 13.77,-11.316 3.43,-5.453 5.17,-11.645 5.17,-18.641 0,-8.898 -2.59,-16.218 -7.79,-22 -5.2,-5.785 -12.97,-9.422 -23.32,-10.933 5.14,-3 9.38,-6.309 12.72,-9.914 3.36,-3.606 7.87,-10.02 13.55,-19.223 l 14.42,-23.074 h -28.55 l -17.12,25.832 c -6.15,9.164 -10.36,14.953 -12.65,17.348 -2.25,2.367 -4.65,4.019 -7.18,4.902 -2.57,0.875 -6.58,1.32 -12.09,1.32 h -4.85 v -49.402 z m 23.96,68.238 h 17.68 c 11.45,0 18.59,0.492 21.45,1.457 2.84,0.965 5.09,2.645 6.69,5.012 1.62,2.367 2.43,5.344 2.43,8.894 0,3.993 -1.08,7.188 -3.2,9.664 -2.12,2.45 -5.12,3.993 -8.97,4.629 -1.96,0.274 -7.77,0.414 -17.44,0.414 h -18.64 z m 94.53,-68.238 V 305.18 h 23.96 V 186.883 Z m 73.33,0 v 98.308 h -35.02 v 19.989 h 93.84 v -19.989 h -34.86 v -98.308 z m 73.99,0 V 305.18 h 35.88 l 21.2,-80.68 20.96,80.68 h 35.96 V 186.883 h -22.14 l -0.08,93.129 -23.33,-93.129 h -23.02 l -23.21,93.129 -0.08,-93.129 z m 137.13,0 V 305.18 h 23.96 V 186.883 Z m 153.29,0 h -25.8 l -10.21,26.93 h -47.45 l -9.83,-26.93 h -25.33 l 45.93,118.297 h 25.3 z m -43.78,46.922 -16.44,43.781 -15.97,-43.781 z M 742.301,45.9258 765.43,38.8242 C 761.879,25.7969 755.957,16.1328 747.695,9.79688 739.434,3.49609 728.977,0.328125 716.277,0.328125 c -15.722,0 -28.636,5.367185 -38.769,16.105475 -10.106,10.7422 -15.176,25.418 -15.176,44.0586 0,19.6875 5.098,34.9961 15.258,45.9028 10.16,10.906 23.547,16.359 40.121,16.359 14.484,0 26.242,-4.297 35.273,-12.859 5.395,-5.067 9.418,-12.3364 12.118,-21.8364 l -23.629,-5.6211 c -1.403,6.1172 -4.325,10.9609 -8.754,14.5156 -4.465,3.5469 -9.86,5.3129 -16.192,5.3129 -8.785,0 -15.918,-3.1371 -21.371,-9.4418 -5.476,-6.2773 -8.203,-16.4687 -8.203,-30.5664 0,-14.9297 2.695,-25.582 8.07,-31.918 5.395,-6.3593 12.387,-9.5273 21.008,-9.5273 6.364,0 11.84,2.0117 16.41,6.0586 4.575,4.0508 7.875,10.3789 9.86,19.0547 z m 43.644,74.6832 h 23.957 V 56.5 c 0,-10.1875 0.305,-16.7695 0.879,-19.7695 1.02,-4.8477 3.418,-8.7578 7.219,-11.6758 3.824,-2.9453 9.027,-4.4063 15.641,-4.4063 6.687,0 11.757,1.3789 15.172,4.1602 3.414,2.7812 5.449,6.168 6.136,10.2148 0.692,4.0469 1.051,10.7422 1.051,20.1016 v 65.484 h 23.953 V 58.4023 c 0,-14.207 -0.633,-24.2617 -1.922,-30.125 -1.297,-5.8671 -3.664,-10.8242 -7.136,-14.871 C 867.453,9.35938 862.828,6.16406 857.043,3.76953 851.234,1.375 843.691,0.164063 834.352,0.164063 c -11.258,0 -19.793,1.296877 -25.606,3.910157 -5.808,2.61328 -10.41,5.99998 -13.793,10.18748 -3.39,4.1836 -5.59,8.5352 -6.668,13.1328 -1.566,6.7774 -2.34,16.8008 -2.34,30.043 z M 980.934,45.9258 1004.06,38.8242 C 1000.51,25.7969 994.586,16.1328 986.328,9.79688 978.066,3.49609 967.605,0.328125 954.91,0.328125 c -15.722,0 -28.637,5.367185 -38.773,16.105475 -10.102,10.7422 -15.172,25.418 -15.172,44.0586 0,19.6875 5.098,34.9961 15.254,45.9028 10.164,10.906 23.547,16.359 40.125,16.359 14.48,0 26.242,-4.297 35.269,-12.859 5.399,-5.067 9.417,-12.3364 12.117,-21.8364 l -23.625,-5.6211 c -1.402,6.1172 -4.324,10.9609 -8.757,14.5156 -4.461,3.5469 -9.86,5.3129 -16.192,5.3129 -8.785,0 -15.914,-3.1371 -21.367,-9.4418 -5.48,-6.2773 -8.207,-16.4687 -8.207,-30.5664 0,-14.9297 2.699,-25.582 8.07,-31.918 5.395,-6.3593 12.391,-9.5273 21.012,-9.5273 6.359,0 11.836,2.0117 16.406,6.0586 4.575,4.0508 7.879,10.3789 9.864,19.0547 z M 1024.58,2.30859 V 120.609 h 87.56 v -19.996 h -63.6 V 74.3477 h 59.14 V 54.3516 h -59.14 V 22.3008 h 65.92 V 2.30859 Z m 109.37,0 V 120.609 h 23.96 V 2.30859 h -23.96"
         style="fill:#231f20;fill-opacity:1;fill-rule:nonzero;stroke:none"
         id="path22" />
    </g>
  </g>
</svg>
